<mxfile host="Electron" modified="2024-10-13T17:35:27.509Z" agent="Mozilla/5.0 (Windows NT 10.0; Win64; x64) AppleWebKit/537.36 (KHTML, like Gecko) draw.io/24.1.0 Chrome/120.0.6099.109 Electron/28.1.0 Safari/537.36" etag="ONlp4chj9jZSS6dusl_c" version="24.1.0" type="device">
  <diagram name="Страница — 1" id="wrcG8qeUlrA2TCnfavbC">
    <mxGraphModel dx="1950" dy="1240" grid="1" gridSize="10" guides="1" tooltips="1" connect="1" arrows="1" fold="1" page="1" pageScale="1" pageWidth="1169" pageHeight="827" math="0" shadow="0">
      <root>
        <mxCell id="0" />
        <mxCell id="1" parent="0" />
        <mxCell id="ijdiBSMjXIEksHt79I9u-1" value="" style="rounded=0;whiteSpace=wrap;html=1;" parent="1" vertex="1">
          <mxGeometry x="2440" y="160" width="800" height="400" as="geometry" />
        </mxCell>
        <mxCell id="ijdiBSMjXIEksHt79I9u-2" value="" style="rounded=0;whiteSpace=wrap;html=1;" parent="1" vertex="1">
          <mxGeometry x="1240" y="160" width="800" height="400" as="geometry" />
        </mxCell>
        <mxCell id="ijdiBSMjXIEksHt79I9u-3" value="" style="rounded=0;whiteSpace=wrap;html=1;" parent="1" vertex="1">
          <mxGeometry x="40" y="160" width="800" height="400" as="geometry" />
        </mxCell>
        <mxCell id="ijdiBSMjXIEksHt79I9u-16" value="" style="verticalLabelPosition=bottom;verticalAlign=top;html=1;shape=mxgraph.basic.layered_rect;dx=10;outlineConnect=0;whiteSpace=wrap;" parent="1" vertex="1">
          <mxGeometry x="2480" y="403" width="120" height="114" as="geometry" />
        </mxCell>
        <mxCell id="ijdiBSMjXIEksHt79I9u-17" value="Задачи (Список&amp;nbsp; задач)" style="text;html=1;align=center;verticalAlign=middle;whiteSpace=wrap;rounded=0;" parent="1" vertex="1">
          <mxGeometry x="2490" y="424" width="90" height="60" as="geometry" />
        </mxCell>
        <mxCell id="ijdiBSMjXIEksHt79I9u-18" value="Календарь (Сроки)" style="shape=table;startSize=30;container=1;collapsible=0;childLayout=tableLayout;strokeColor=default;fontSize=16;" parent="1" vertex="1">
          <mxGeometry x="2640" y="400" width="320" height="155" as="geometry" />
        </mxCell>
        <mxCell id="SkQsY1CltA6RGCCleW-o-102" style="shape=tableRow;horizontal=0;startSize=0;swimlaneHead=0;swimlaneBody=0;strokeColor=inherit;top=0;left=0;bottom=0;right=0;collapsible=0;dropTarget=0;fillColor=none;points=[[0,0.5],[1,0.5]];portConstraint=eastwest;fontSize=16;" parent="ijdiBSMjXIEksHt79I9u-18" vertex="1">
          <mxGeometry y="30" width="320" height="25" as="geometry" />
        </mxCell>
        <mxCell id="SkQsY1CltA6RGCCleW-o-103" value="Задача" style="shape=partialRectangle;html=1;whiteSpace=wrap;connectable=0;strokeColor=inherit;overflow=hidden;fillColor=none;top=0;left=0;bottom=0;right=0;pointerEvents=1;fontSize=16;" parent="SkQsY1CltA6RGCCleW-o-102" vertex="1">
          <mxGeometry width="107" height="25" as="geometry">
            <mxRectangle width="107" height="25" as="alternateBounds" />
          </mxGeometry>
        </mxCell>
        <mxCell id="SkQsY1CltA6RGCCleW-o-104" value="&lt;font color=&quot;#ff0000&quot; style=&quot;font-size: 15px;&quot;&gt;&lt;u&gt;Напоминание&lt;/u&gt;&lt;/font&gt;" style="shape=partialRectangle;html=1;whiteSpace=wrap;connectable=0;strokeColor=inherit;overflow=hidden;fillColor=none;top=0;left=0;bottom=0;right=0;pointerEvents=1;fontSize=16;" parent="SkQsY1CltA6RGCCleW-o-102" vertex="1">
          <mxGeometry x="107" width="106" height="25" as="geometry">
            <mxRectangle width="106" height="25" as="alternateBounds" />
          </mxGeometry>
        </mxCell>
        <mxCell id="SkQsY1CltA6RGCCleW-o-105" value="Дедлайн" style="shape=partialRectangle;html=1;whiteSpace=wrap;connectable=0;strokeColor=inherit;overflow=hidden;fillColor=none;top=0;left=0;bottom=0;right=0;pointerEvents=1;fontSize=16;" parent="SkQsY1CltA6RGCCleW-o-102" vertex="1">
          <mxGeometry x="213" width="107" height="25" as="geometry">
            <mxRectangle width="107" height="25" as="alternateBounds" />
          </mxGeometry>
        </mxCell>
        <mxCell id="ijdiBSMjXIEksHt79I9u-19" value="" style="shape=tableRow;horizontal=0;startSize=0;swimlaneHead=0;swimlaneBody=0;strokeColor=inherit;top=0;left=0;bottom=0;right=0;collapsible=0;dropTarget=0;fillColor=none;points=[[0,0.5],[1,0.5]];portConstraint=eastwest;fontSize=16;" parent="ijdiBSMjXIEksHt79I9u-18" vertex="1">
          <mxGeometry y="55" width="320" height="25" as="geometry" />
        </mxCell>
        <mxCell id="ijdiBSMjXIEksHt79I9u-20" value="Задача 1" style="shape=partialRectangle;html=1;whiteSpace=wrap;connectable=0;strokeColor=inherit;overflow=hidden;fillColor=none;top=0;left=0;bottom=0;right=0;pointerEvents=1;fontSize=16;" parent="ijdiBSMjXIEksHt79I9u-19" vertex="1">
          <mxGeometry width="107" height="25" as="geometry">
            <mxRectangle width="107" height="25" as="alternateBounds" />
          </mxGeometry>
        </mxCell>
        <mxCell id="ijdiBSMjXIEksHt79I9u-21" value="- - -" style="shape=partialRectangle;html=1;whiteSpace=wrap;connectable=0;strokeColor=inherit;overflow=hidden;fillColor=none;top=0;left=0;bottom=0;right=0;pointerEvents=1;fontSize=16;" parent="ijdiBSMjXIEksHt79I9u-19" vertex="1">
          <mxGeometry x="107" width="106" height="25" as="geometry">
            <mxRectangle width="106" height="25" as="alternateBounds" />
          </mxGeometry>
        </mxCell>
        <mxCell id="ijdiBSMjXIEksHt79I9u-22" value="12.01.22" style="shape=partialRectangle;html=1;whiteSpace=wrap;connectable=0;strokeColor=inherit;overflow=hidden;fillColor=none;top=0;left=0;bottom=0;right=0;pointerEvents=1;fontSize=16;" parent="ijdiBSMjXIEksHt79I9u-19" vertex="1">
          <mxGeometry x="213" width="107" height="25" as="geometry">
            <mxRectangle width="107" height="25" as="alternateBounds" />
          </mxGeometry>
        </mxCell>
        <mxCell id="ijdiBSMjXIEksHt79I9u-23" value="" style="shape=tableRow;horizontal=0;startSize=0;swimlaneHead=0;swimlaneBody=0;strokeColor=inherit;top=0;left=0;bottom=0;right=0;collapsible=0;dropTarget=0;fillColor=none;points=[[0,0.5],[1,0.5]];portConstraint=eastwest;fontSize=16;" parent="ijdiBSMjXIEksHt79I9u-18" vertex="1">
          <mxGeometry y="80" width="320" height="24" as="geometry" />
        </mxCell>
        <mxCell id="ijdiBSMjXIEksHt79I9u-24" value="Задача 2" style="shape=partialRectangle;html=1;whiteSpace=wrap;connectable=0;strokeColor=inherit;overflow=hidden;fillColor=none;top=0;left=0;bottom=0;right=0;pointerEvents=1;fontSize=16;" parent="ijdiBSMjXIEksHt79I9u-23" vertex="1">
          <mxGeometry width="107" height="24" as="geometry">
            <mxRectangle width="107" height="24" as="alternateBounds" />
          </mxGeometry>
        </mxCell>
        <mxCell id="ijdiBSMjXIEksHt79I9u-25" value="18.01.22" style="shape=partialRectangle;html=1;whiteSpace=wrap;connectable=0;strokeColor=inherit;overflow=hidden;fillColor=none;top=0;left=0;bottom=0;right=0;pointerEvents=1;fontSize=16;" parent="ijdiBSMjXIEksHt79I9u-23" vertex="1">
          <mxGeometry x="107" width="106" height="24" as="geometry">
            <mxRectangle width="106" height="24" as="alternateBounds" />
          </mxGeometry>
        </mxCell>
        <mxCell id="ijdiBSMjXIEksHt79I9u-26" value="18.01.22" style="shape=partialRectangle;html=1;whiteSpace=wrap;connectable=0;strokeColor=inherit;overflow=hidden;fillColor=none;top=0;left=0;bottom=0;right=0;pointerEvents=1;fontSize=16;" parent="ijdiBSMjXIEksHt79I9u-23" vertex="1">
          <mxGeometry x="213" width="107" height="24" as="geometry">
            <mxRectangle width="107" height="24" as="alternateBounds" />
          </mxGeometry>
        </mxCell>
        <mxCell id="ijdiBSMjXIEksHt79I9u-27" value="" style="shape=tableRow;horizontal=0;startSize=0;swimlaneHead=0;swimlaneBody=0;strokeColor=inherit;top=0;left=0;bottom=0;right=0;collapsible=0;dropTarget=0;fillColor=none;points=[[0,0.5],[1,0.5]];portConstraint=eastwest;fontSize=16;" parent="ijdiBSMjXIEksHt79I9u-18" vertex="1">
          <mxGeometry y="104" width="320" height="26" as="geometry" />
        </mxCell>
        <mxCell id="ijdiBSMjXIEksHt79I9u-28" value="Задача 3" style="shape=partialRectangle;html=1;whiteSpace=wrap;connectable=0;strokeColor=inherit;overflow=hidden;fillColor=none;top=0;left=0;bottom=0;right=0;pointerEvents=1;fontSize=16;" parent="ijdiBSMjXIEksHt79I9u-27" vertex="1">
          <mxGeometry width="107" height="26" as="geometry">
            <mxRectangle width="107" height="26" as="alternateBounds" />
          </mxGeometry>
        </mxCell>
        <mxCell id="ijdiBSMjXIEksHt79I9u-29" value="19.01.22" style="shape=partialRectangle;html=1;whiteSpace=wrap;connectable=0;strokeColor=inherit;overflow=hidden;fillColor=none;top=0;left=0;bottom=0;right=0;pointerEvents=1;fontSize=16;" parent="ijdiBSMjXIEksHt79I9u-27" vertex="1">
          <mxGeometry x="107" width="106" height="26" as="geometry">
            <mxRectangle width="106" height="26" as="alternateBounds" />
          </mxGeometry>
        </mxCell>
        <mxCell id="ijdiBSMjXIEksHt79I9u-30" value="19.01.22" style="shape=partialRectangle;html=1;whiteSpace=wrap;connectable=0;strokeColor=inherit;overflow=hidden;fillColor=none;top=0;left=0;bottom=0;right=0;pointerEvents=1;fontSize=16;" parent="ijdiBSMjXIEksHt79I9u-27" vertex="1">
          <mxGeometry x="213" width="107" height="26" as="geometry">
            <mxRectangle width="107" height="26" as="alternateBounds" />
          </mxGeometry>
        </mxCell>
        <mxCell id="SkQsY1CltA6RGCCleW-o-97" style="shape=tableRow;horizontal=0;startSize=0;swimlaneHead=0;swimlaneBody=0;strokeColor=inherit;top=0;left=0;bottom=0;right=0;collapsible=0;dropTarget=0;fillColor=none;points=[[0,0.5],[1,0.5]];portConstraint=eastwest;fontSize=16;" parent="ijdiBSMjXIEksHt79I9u-18" vertex="1">
          <mxGeometry y="130" width="320" height="25" as="geometry" />
        </mxCell>
        <mxCell id="SkQsY1CltA6RGCCleW-o-98" value="Задача 4" style="shape=partialRectangle;html=1;whiteSpace=wrap;connectable=0;strokeColor=inherit;overflow=hidden;fillColor=none;top=0;left=0;bottom=0;right=0;pointerEvents=1;fontSize=16;" parent="SkQsY1CltA6RGCCleW-o-97" vertex="1">
          <mxGeometry width="107" height="25" as="geometry">
            <mxRectangle width="107" height="25" as="alternateBounds" />
          </mxGeometry>
        </mxCell>
        <mxCell id="SkQsY1CltA6RGCCleW-o-99" value="24.01.22..." style="shape=partialRectangle;html=1;whiteSpace=wrap;connectable=0;strokeColor=inherit;overflow=hidden;fillColor=none;top=0;left=0;bottom=0;right=0;pointerEvents=1;fontSize=16;" parent="SkQsY1CltA6RGCCleW-o-97" vertex="1">
          <mxGeometry x="107" width="106" height="25" as="geometry">
            <mxRectangle width="106" height="25" as="alternateBounds" />
          </mxGeometry>
        </mxCell>
        <mxCell id="SkQsY1CltA6RGCCleW-o-100" value="31.01.22" style="shape=partialRectangle;html=1;whiteSpace=wrap;connectable=0;strokeColor=inherit;overflow=hidden;fillColor=none;top=0;left=0;bottom=0;right=0;pointerEvents=1;fontSize=16;" parent="SkQsY1CltA6RGCCleW-o-97" vertex="1">
          <mxGeometry x="213" width="107" height="25" as="geometry">
            <mxRectangle width="107" height="25" as="alternateBounds" />
          </mxGeometry>
        </mxCell>
        <mxCell id="ijdiBSMjXIEksHt79I9u-31" value="Настройки" style="label;whiteSpace=wrap;html=1;image=img/clipart/Gear_128x128.png" parent="1" vertex="1">
          <mxGeometry x="2690" y="169" width="125" height="40" as="geometry" />
        </mxCell>
        <mxCell id="ijdiBSMjXIEksHt79I9u-41" value="План работ на январь 2022" style="swimlane;fontStyle=0;childLayout=stackLayout;horizontal=1;startSize=40;fillColor=none;horizontalStack=0;resizeParent=1;resizeParentMax=0;resizeLast=0;collapsible=1;marginBottom=0;html=1;" parent="1" vertex="1">
          <mxGeometry x="2480" y="240" width="480" height="144" as="geometry">
            <mxRectangle x="80" y="240" width="90" height="40" as="alternateBounds" />
          </mxGeometry>
        </mxCell>
        <mxCell id="ijdiBSMjXIEksHt79I9u-42" value="Задача 1 - &quot;Согласовать акт приемки 1-го этапа работ&quot;." style="text;strokeColor=default;fillColor=none;align=left;verticalAlign=top;spacingLeft=4;spacingRight=4;overflow=hidden;rotatable=0;points=[[0,0.5],[1,0.5]];portConstraint=eastwest;whiteSpace=wrap;html=1;" parent="ijdiBSMjXIEksHt79I9u-41" vertex="1">
          <mxGeometry y="40" width="480" height="26" as="geometry" />
        </mxCell>
        <mxCell id="ijdiBSMjXIEksHt79I9u-43" value="Задача 2 - &quot;Составить протокол принятия 2-го этапа работ&quot;" style="text;strokeColor=default;fillColor=none;align=left;verticalAlign=top;spacingLeft=4;spacingRight=4;overflow=hidden;rotatable=0;points=[[0,0.5],[1,0.5]];portConstraint=eastwest;whiteSpace=wrap;html=1;" parent="ijdiBSMjXIEksHt79I9u-41" vertex="1">
          <mxGeometry y="66" width="480" height="26" as="geometry" />
        </mxCell>
        <mxCell id="ijdiBSMjXIEksHt79I9u-44" value="Задача 3 - &quot;Отправить документы на проверку куратору&quot;" style="text;strokeColor=default;fillColor=none;align=left;verticalAlign=top;spacingLeft=4;spacingRight=4;overflow=hidden;rotatable=0;points=[[0,0.5],[1,0.5]];portConstraint=eastwest;whiteSpace=wrap;html=1;labelBorderColor=none;" parent="ijdiBSMjXIEksHt79I9u-41" vertex="1">
          <mxGeometry y="92" width="480" height="26" as="geometry" />
        </mxCell>
        <mxCell id="SkQsY1CltA6RGCCleW-o-2" value="Задача 4- &quot;Подготовить НТД для внутреннего аудита&quot;." style="text;strokeColor=default;fillColor=none;align=left;verticalAlign=top;spacingLeft=4;spacingRight=4;overflow=hidden;rotatable=0;points=[[0,0.5],[1,0.5]];portConstraint=eastwest;whiteSpace=wrap;html=1;labelBorderColor=none;" parent="ijdiBSMjXIEksHt79I9u-41" vertex="1">
          <mxGeometry y="118" width="480" height="26" as="geometry" />
        </mxCell>
        <mxCell id="ijdiBSMjXIEksHt79I9u-50" value="Функции, фильтры и возможность сортировки по цвету, имени, времени создания, времени изменения,&amp;nbsp;&lt;font color=&quot;#ff0000&quot;&gt;&lt;u&gt;времени напоминания о статусе актуальности задачи и возможность &quot;включения&quot; данной функции.&lt;/u&gt;&lt;/font&gt;" style="rounded=1;whiteSpace=wrap;html=1;strokeColor=#FF0000;strokeWidth=2;" parent="1" vertex="1">
          <mxGeometry x="710" y="20" width="160" height="130" as="geometry" />
        </mxCell>
        <mxCell id="ijdiBSMjXIEksHt79I9u-55" value="Настройки. Иные настройки. Обратная связь." style="rounded=1;whiteSpace=wrap;html=1;" parent="1" vertex="1">
          <mxGeometry x="400" y="20" width="115" height="70" as="geometry" />
        </mxCell>
        <mxCell id="vGs2cDwpTkm4cy82NsCu-1" value="" style="childLayout=tableLayout;recursiveResize=0;shadow=0;fillColor=none;" parent="1" vertex="1">
          <mxGeometry x="1280" y="221" width="650" height="319" as="geometry" />
        </mxCell>
        <mxCell id="vGs2cDwpTkm4cy82NsCu-2" value="" style="shape=tableRow;horizontal=0;startSize=0;swimlaneHead=0;swimlaneBody=0;top=0;left=0;bottom=0;right=0;dropTarget=0;collapsible=0;recursiveResize=0;expand=0;fontStyle=0;fillColor=none;strokeColor=inherit;" parent="vGs2cDwpTkm4cy82NsCu-1" vertex="1">
          <mxGeometry width="650" height="54" as="geometry" />
        </mxCell>
        <mxCell id="vGs2cDwpTkm4cy82NsCu-3" value="Задача" style="connectable=0;recursiveResize=0;strokeColor=inherit;fillColor=none;align=center;whiteSpace=wrap;html=1;" parent="vGs2cDwpTkm4cy82NsCu-2" vertex="1">
          <mxGeometry width="170" height="54" as="geometry">
            <mxRectangle width="170" height="54" as="alternateBounds" />
          </mxGeometry>
        </mxCell>
        <mxCell id="vGs2cDwpTkm4cy82NsCu-4" value="Приступить к выполнению" style="connectable=0;recursiveResize=0;strokeColor=inherit;fillColor=none;align=center;whiteSpace=wrap;html=1;" parent="vGs2cDwpTkm4cy82NsCu-2" vertex="1">
          <mxGeometry x="170" width="70" height="54" as="geometry">
            <mxRectangle width="70" height="54" as="alternateBounds" />
          </mxGeometry>
        </mxCell>
        <mxCell id="vGs2cDwpTkm4cy82NsCu-5" value="Продолжительность (в днях)" style="connectable=0;recursiveResize=0;strokeColor=inherit;fillColor=none;align=center;whiteSpace=wrap;html=1;" parent="vGs2cDwpTkm4cy82NsCu-2" vertex="1">
          <mxGeometry x="240" width="120" height="54" as="geometry">
            <mxRectangle width="120" height="54" as="alternateBounds" />
          </mxGeometry>
        </mxCell>
        <mxCell id="vGs2cDwpTkm4cy82NsCu-14" value="Назначенное время уведомления" style="connectable=0;recursiveResize=0;strokeColor=inherit;fillColor=none;align=center;whiteSpace=wrap;html=1;" parent="vGs2cDwpTkm4cy82NsCu-2" vertex="1">
          <mxGeometry x="360" width="100" height="54" as="geometry">
            <mxRectangle width="100" height="54" as="alternateBounds" />
          </mxGeometry>
        </mxCell>
        <mxCell id="vGs2cDwpTkm4cy82NsCu-42" value="Исполнитель" style="connectable=0;recursiveResize=0;strokeColor=inherit;fillColor=none;align=center;whiteSpace=wrap;html=1;" parent="vGs2cDwpTkm4cy82NsCu-2" vertex="1">
          <mxGeometry x="460" width="90" height="54" as="geometry">
            <mxRectangle width="90" height="54" as="alternateBounds" />
          </mxGeometry>
        </mxCell>
        <mxCell id="vGs2cDwpTkm4cy82NsCu-45" value="Статус" style="connectable=0;recursiveResize=0;strokeColor=inherit;fillColor=none;align=center;whiteSpace=wrap;html=1;" parent="vGs2cDwpTkm4cy82NsCu-2" vertex="1">
          <mxGeometry x="550" width="100" height="54" as="geometry">
            <mxRectangle width="100" height="54" as="alternateBounds" />
          </mxGeometry>
        </mxCell>
        <mxCell id="vGs2cDwpTkm4cy82NsCu-6" style="shape=tableRow;horizontal=0;startSize=0;swimlaneHead=0;swimlaneBody=0;top=0;left=0;bottom=0;right=0;dropTarget=0;collapsible=0;recursiveResize=0;expand=0;fontStyle=0;fillColor=none;strokeColor=inherit;" parent="vGs2cDwpTkm4cy82NsCu-1" vertex="1">
          <mxGeometry y="54" width="650" height="53" as="geometry" />
        </mxCell>
        <mxCell id="vGs2cDwpTkm4cy82NsCu-7" value="&lt;span style=&quot;text-align: left;&quot;&gt;Согласовать акт приемки 1-го этапа работ&lt;/span&gt;" style="connectable=0;recursiveResize=0;strokeColor=inherit;fillColor=none;align=center;whiteSpace=wrap;html=1;" parent="vGs2cDwpTkm4cy82NsCu-6" vertex="1">
          <mxGeometry width="170" height="53" as="geometry">
            <mxRectangle width="170" height="53" as="alternateBounds" />
          </mxGeometry>
        </mxCell>
        <mxCell id="vGs2cDwpTkm4cy82NsCu-8" value="10.01.22" style="connectable=0;recursiveResize=0;strokeColor=inherit;fillColor=none;align=center;whiteSpace=wrap;html=1;" parent="vGs2cDwpTkm4cy82NsCu-6" vertex="1">
          <mxGeometry x="170" width="70" height="53" as="geometry">
            <mxRectangle width="70" height="53" as="alternateBounds" />
          </mxGeometry>
        </mxCell>
        <mxCell id="vGs2cDwpTkm4cy82NsCu-9" value="2" style="connectable=0;recursiveResize=0;strokeColor=inherit;fillColor=none;align=center;whiteSpace=wrap;html=1;" parent="vGs2cDwpTkm4cy82NsCu-6" vertex="1">
          <mxGeometry x="240" width="120" height="53" as="geometry">
            <mxRectangle width="120" height="53" as="alternateBounds" />
          </mxGeometry>
        </mxCell>
        <mxCell id="vGs2cDwpTkm4cy82NsCu-15" value="- - -" style="connectable=0;recursiveResize=0;strokeColor=inherit;fillColor=none;align=center;whiteSpace=wrap;html=1;" parent="vGs2cDwpTkm4cy82NsCu-6" vertex="1">
          <mxGeometry x="360" width="100" height="53" as="geometry">
            <mxRectangle width="100" height="53" as="alternateBounds" />
          </mxGeometry>
        </mxCell>
        <mxCell id="vGs2cDwpTkm4cy82NsCu-43" value="ФИО" style="connectable=0;recursiveResize=0;strokeColor=inherit;fillColor=none;align=center;whiteSpace=wrap;html=1;" parent="vGs2cDwpTkm4cy82NsCu-6" vertex="1">
          <mxGeometry x="460" width="90" height="53" as="geometry">
            <mxRectangle width="90" height="53" as="alternateBounds" />
          </mxGeometry>
        </mxCell>
        <mxCell id="vGs2cDwpTkm4cy82NsCu-46" value="Выполнена" style="connectable=0;recursiveResize=0;strokeColor=inherit;fillColor=none;align=center;whiteSpace=wrap;html=1;" parent="vGs2cDwpTkm4cy82NsCu-6" vertex="1">
          <mxGeometry x="550" width="100" height="53" as="geometry">
            <mxRectangle width="100" height="53" as="alternateBounds" />
          </mxGeometry>
        </mxCell>
        <mxCell id="vGs2cDwpTkm4cy82NsCu-10" style="shape=tableRow;horizontal=0;startSize=0;swimlaneHead=0;swimlaneBody=0;top=0;left=0;bottom=0;right=0;dropTarget=0;collapsible=0;recursiveResize=0;expand=0;fontStyle=0;fillColor=none;strokeColor=inherit;" parent="vGs2cDwpTkm4cy82NsCu-1" vertex="1">
          <mxGeometry y="107" width="650" height="53" as="geometry" />
        </mxCell>
        <mxCell id="vGs2cDwpTkm4cy82NsCu-11" value="&lt;span style=&quot;text-align: left;&quot;&gt;Составить протокол принятия 2-го этапа работ&lt;/span&gt;" style="connectable=0;recursiveResize=0;strokeColor=inherit;fillColor=none;align=center;whiteSpace=wrap;html=1;" parent="vGs2cDwpTkm4cy82NsCu-10" vertex="1">
          <mxGeometry width="170" height="53" as="geometry">
            <mxRectangle width="170" height="53" as="alternateBounds" />
          </mxGeometry>
        </mxCell>
        <mxCell id="vGs2cDwpTkm4cy82NsCu-12" value="13.01.22" style="connectable=0;recursiveResize=0;strokeColor=inherit;fillColor=none;align=center;whiteSpace=wrap;html=1;" parent="vGs2cDwpTkm4cy82NsCu-10" vertex="1">
          <mxGeometry x="170" width="70" height="53" as="geometry">
            <mxRectangle width="70" height="53" as="alternateBounds" />
          </mxGeometry>
        </mxCell>
        <mxCell id="vGs2cDwpTkm4cy82NsCu-13" value="3" style="connectable=0;recursiveResize=0;strokeColor=inherit;fillColor=none;align=center;whiteSpace=wrap;html=1;" parent="vGs2cDwpTkm4cy82NsCu-10" vertex="1">
          <mxGeometry x="240" width="120" height="53" as="geometry">
            <mxRectangle width="120" height="53" as="alternateBounds" />
          </mxGeometry>
        </mxCell>
        <mxCell id="vGs2cDwpTkm4cy82NsCu-16" value="18.01.22" style="connectable=0;recursiveResize=0;strokeColor=inherit;fillColor=none;align=center;whiteSpace=wrap;html=1;" parent="vGs2cDwpTkm4cy82NsCu-10" vertex="1">
          <mxGeometry x="360" width="100" height="53" as="geometry">
            <mxRectangle width="100" height="53" as="alternateBounds" />
          </mxGeometry>
        </mxCell>
        <mxCell id="vGs2cDwpTkm4cy82NsCu-44" value="ФИО" style="connectable=0;recursiveResize=0;strokeColor=inherit;fillColor=none;align=center;whiteSpace=wrap;html=1;" parent="vGs2cDwpTkm4cy82NsCu-10" vertex="1">
          <mxGeometry x="460" width="90" height="53" as="geometry">
            <mxRectangle width="90" height="53" as="alternateBounds" />
          </mxGeometry>
        </mxCell>
        <mxCell id="vGs2cDwpTkm4cy82NsCu-47" value="В работе" style="connectable=0;recursiveResize=0;strokeColor=inherit;fillColor=none;align=center;whiteSpace=wrap;html=1;" parent="vGs2cDwpTkm4cy82NsCu-10" vertex="1">
          <mxGeometry x="550" width="100" height="53" as="geometry">
            <mxRectangle width="100" height="53" as="alternateBounds" />
          </mxGeometry>
        </mxCell>
        <mxCell id="vGs2cDwpTkm4cy82NsCu-48" style="shape=tableRow;horizontal=0;startSize=0;swimlaneHead=0;swimlaneBody=0;top=0;left=0;bottom=0;right=0;dropTarget=0;collapsible=0;recursiveResize=0;expand=0;fontStyle=0;fillColor=none;strokeColor=inherit;" parent="vGs2cDwpTkm4cy82NsCu-1" vertex="1">
          <mxGeometry y="160" width="650" height="53" as="geometry" />
        </mxCell>
        <mxCell id="vGs2cDwpTkm4cy82NsCu-49" value="&lt;span style=&quot;text-align: left;&quot;&gt;Отправить документы на проверку куратору&lt;/span&gt;" style="connectable=0;recursiveResize=0;strokeColor=inherit;fillColor=none;align=center;whiteSpace=wrap;html=1;" parent="vGs2cDwpTkm4cy82NsCu-48" vertex="1">
          <mxGeometry width="170" height="53" as="geometry">
            <mxRectangle width="170" height="53" as="alternateBounds" />
          </mxGeometry>
        </mxCell>
        <mxCell id="vGs2cDwpTkm4cy82NsCu-50" value="19.01.22" style="connectable=0;recursiveResize=0;strokeColor=inherit;fillColor=none;align=center;whiteSpace=wrap;html=1;" parent="vGs2cDwpTkm4cy82NsCu-48" vertex="1">
          <mxGeometry x="170" width="70" height="53" as="geometry">
            <mxRectangle width="70" height="53" as="alternateBounds" />
          </mxGeometry>
        </mxCell>
        <mxCell id="vGs2cDwpTkm4cy82NsCu-51" value="1" style="connectable=0;recursiveResize=0;strokeColor=inherit;fillColor=none;align=center;whiteSpace=wrap;html=1;" parent="vGs2cDwpTkm4cy82NsCu-48" vertex="1">
          <mxGeometry x="240" width="120" height="53" as="geometry">
            <mxRectangle width="120" height="53" as="alternateBounds" />
          </mxGeometry>
        </mxCell>
        <mxCell id="vGs2cDwpTkm4cy82NsCu-52" value="14:00 19.01.22" style="connectable=0;recursiveResize=0;strokeColor=inherit;fillColor=none;align=center;whiteSpace=wrap;html=1;" parent="vGs2cDwpTkm4cy82NsCu-48" vertex="1">
          <mxGeometry x="360" width="100" height="53" as="geometry">
            <mxRectangle width="100" height="53" as="alternateBounds" />
          </mxGeometry>
        </mxCell>
        <mxCell id="vGs2cDwpTkm4cy82NsCu-53" value="ФИО" style="connectable=0;recursiveResize=0;strokeColor=inherit;fillColor=none;align=center;whiteSpace=wrap;html=1;" parent="vGs2cDwpTkm4cy82NsCu-48" vertex="1">
          <mxGeometry x="460" width="90" height="53" as="geometry">
            <mxRectangle width="90" height="53" as="alternateBounds" />
          </mxGeometry>
        </mxCell>
        <mxCell id="vGs2cDwpTkm4cy82NsCu-54" value="В ожидании" style="connectable=0;recursiveResize=0;strokeColor=inherit;fillColor=none;align=center;whiteSpace=wrap;html=1;" parent="vGs2cDwpTkm4cy82NsCu-48" vertex="1">
          <mxGeometry x="550" width="100" height="53" as="geometry">
            <mxRectangle width="100" height="53" as="alternateBounds" />
          </mxGeometry>
        </mxCell>
        <mxCell id="SkQsY1CltA6RGCCleW-o-28" style="shape=tableRow;horizontal=0;startSize=0;swimlaneHead=0;swimlaneBody=0;top=0;left=0;bottom=0;right=0;dropTarget=0;collapsible=0;recursiveResize=0;expand=0;fontStyle=0;fillColor=none;strokeColor=inherit;" parent="vGs2cDwpTkm4cy82NsCu-1" vertex="1">
          <mxGeometry y="213" width="650" height="53" as="geometry" />
        </mxCell>
        <mxCell id="SkQsY1CltA6RGCCleW-o-29" value="Подготовить техническую документацию для внутреннего аудита" style="connectable=0;recursiveResize=0;strokeColor=inherit;fillColor=none;align=center;whiteSpace=wrap;html=1;" parent="SkQsY1CltA6RGCCleW-o-28" vertex="1">
          <mxGeometry width="170" height="53" as="geometry">
            <mxRectangle width="170" height="53" as="alternateBounds" />
          </mxGeometry>
        </mxCell>
        <mxCell id="SkQsY1CltA6RGCCleW-o-30" value="20.01.22" style="connectable=0;recursiveResize=0;strokeColor=inherit;fillColor=none;align=center;whiteSpace=wrap;html=1;" parent="SkQsY1CltA6RGCCleW-o-28" vertex="1">
          <mxGeometry x="170" width="70" height="53" as="geometry">
            <mxRectangle width="70" height="53" as="alternateBounds" />
          </mxGeometry>
        </mxCell>
        <mxCell id="SkQsY1CltA6RGCCleW-o-31" value="8" style="connectable=0;recursiveResize=0;strokeColor=inherit;fillColor=none;align=center;whiteSpace=wrap;html=1;" parent="SkQsY1CltA6RGCCleW-o-28" vertex="1">
          <mxGeometry x="240" width="120" height="53" as="geometry">
            <mxRectangle width="120" height="53" as="alternateBounds" />
          </mxGeometry>
        </mxCell>
        <mxCell id="SkQsY1CltA6RGCCleW-o-32" value="24.01.22&lt;br&gt;26.01.22&lt;br&gt;13:00 31.01.22" style="connectable=0;recursiveResize=0;strokeColor=inherit;fillColor=none;align=center;whiteSpace=wrap;html=1;" parent="SkQsY1CltA6RGCCleW-o-28" vertex="1">
          <mxGeometry x="360" width="100" height="53" as="geometry">
            <mxRectangle width="100" height="53" as="alternateBounds" />
          </mxGeometry>
        </mxCell>
        <mxCell id="SkQsY1CltA6RGCCleW-o-33" value="ФИО" style="connectable=0;recursiveResize=0;strokeColor=inherit;fillColor=none;align=center;whiteSpace=wrap;html=1;" parent="SkQsY1CltA6RGCCleW-o-28" vertex="1">
          <mxGeometry x="460" width="90" height="53" as="geometry">
            <mxRectangle width="90" height="53" as="alternateBounds" />
          </mxGeometry>
        </mxCell>
        <mxCell id="SkQsY1CltA6RGCCleW-o-34" value="В ожидании" style="connectable=0;recursiveResize=0;strokeColor=inherit;fillColor=none;align=center;whiteSpace=wrap;html=1;" parent="SkQsY1CltA6RGCCleW-o-28" vertex="1">
          <mxGeometry x="550" width="100" height="53" as="geometry">
            <mxRectangle width="100" height="53" as="alternateBounds" />
          </mxGeometry>
        </mxCell>
        <mxCell id="SkQsY1CltA6RGCCleW-o-35" style="shape=tableRow;horizontal=0;startSize=0;swimlaneHead=0;swimlaneBody=0;top=0;left=0;bottom=0;right=0;dropTarget=0;collapsible=0;recursiveResize=0;expand=0;fontStyle=0;fillColor=none;strokeColor=inherit;" parent="vGs2cDwpTkm4cy82NsCu-1" vertex="1">
          <mxGeometry y="266" width="650" height="53" as="geometry" />
        </mxCell>
        <mxCell id="SkQsY1CltA6RGCCleW-o-36" value="+ (Добавить задачу)" style="connectable=0;recursiveResize=0;strokeColor=inherit;fillColor=none;align=left;whiteSpace=wrap;html=1;rowspan=1;colspan=6;" parent="SkQsY1CltA6RGCCleW-o-35" vertex="1">
          <mxGeometry width="650" height="53" as="geometry">
            <mxRectangle width="170" height="53" as="alternateBounds" />
          </mxGeometry>
        </mxCell>
        <mxCell id="SkQsY1CltA6RGCCleW-o-37" style="connectable=0;recursiveResize=0;strokeColor=inherit;fillColor=none;align=center;whiteSpace=wrap;html=1;" parent="SkQsY1CltA6RGCCleW-o-35" vertex="1" visible="0">
          <mxGeometry x="170" width="70" height="53" as="geometry">
            <mxRectangle width="70" height="53" as="alternateBounds" />
          </mxGeometry>
        </mxCell>
        <mxCell id="SkQsY1CltA6RGCCleW-o-38" style="connectable=0;recursiveResize=0;strokeColor=inherit;fillColor=none;align=center;whiteSpace=wrap;html=1;" parent="SkQsY1CltA6RGCCleW-o-35" vertex="1" visible="0">
          <mxGeometry x="240" width="120" height="53" as="geometry">
            <mxRectangle width="120" height="53" as="alternateBounds" />
          </mxGeometry>
        </mxCell>
        <mxCell id="SkQsY1CltA6RGCCleW-o-39" style="connectable=0;recursiveResize=0;strokeColor=inherit;fillColor=none;align=center;whiteSpace=wrap;html=1;" parent="SkQsY1CltA6RGCCleW-o-35" vertex="1" visible="0">
          <mxGeometry x="360" width="100" height="53" as="geometry">
            <mxRectangle width="100" height="53" as="alternateBounds" />
          </mxGeometry>
        </mxCell>
        <mxCell id="SkQsY1CltA6RGCCleW-o-40" style="connectable=0;recursiveResize=0;strokeColor=inherit;fillColor=none;align=center;whiteSpace=wrap;html=1;" parent="SkQsY1CltA6RGCCleW-o-35" vertex="1" visible="0">
          <mxGeometry x="460" width="90" height="53" as="geometry">
            <mxRectangle width="90" height="53" as="alternateBounds" />
          </mxGeometry>
        </mxCell>
        <mxCell id="SkQsY1CltA6RGCCleW-o-41" style="connectable=0;recursiveResize=0;strokeColor=inherit;fillColor=none;align=center;whiteSpace=wrap;html=1;" parent="SkQsY1CltA6RGCCleW-o-35" vertex="1" visible="0">
          <mxGeometry x="550" width="100" height="53" as="geometry">
            <mxRectangle width="100" height="53" as="alternateBounds" />
          </mxGeometry>
        </mxCell>
        <mxCell id="vGs2cDwpTkm4cy82NsCu-27" value="План работ" style="swimlane;whiteSpace=wrap;html=1;" parent="1" vertex="1">
          <mxGeometry x="3000" y="240" width="200" height="280" as="geometry" />
        </mxCell>
        <mxCell id="vGs2cDwpTkm4cy82NsCu-29" value="Начало работ" style="whiteSpace=wrap;html=1;" parent="vGs2cDwpTkm4cy82NsCu-27" vertex="1">
          <mxGeometry x="10" y="41" width="70" height="40" as="geometry" />
        </mxCell>
        <mxCell id="vGs2cDwpTkm4cy82NsCu-30" value="Задача 1" style="whiteSpace=wrap;html=1;" parent="vGs2cDwpTkm4cy82NsCu-27" vertex="1">
          <mxGeometry x="120" y="41" width="70" height="40" as="geometry" />
        </mxCell>
        <mxCell id="vGs2cDwpTkm4cy82NsCu-31" value="Задача 2" style="whiteSpace=wrap;html=1;" parent="vGs2cDwpTkm4cy82NsCu-27" vertex="1">
          <mxGeometry x="10" y="120" width="70" height="40" as="geometry" />
        </mxCell>
        <mxCell id="vGs2cDwpTkm4cy82NsCu-32" value="Задача 3" style="whiteSpace=wrap;html=1;" parent="vGs2cDwpTkm4cy82NsCu-27" vertex="1">
          <mxGeometry x="120" y="120" width="70" height="40" as="geometry" />
        </mxCell>
        <mxCell id="vGs2cDwpTkm4cy82NsCu-35" value="" style="endArrow=classic;html=1;rounded=0;exitX=1;exitY=0.5;exitDx=0;exitDy=0;entryX=0;entryY=0.5;entryDx=0;entryDy=0;" parent="vGs2cDwpTkm4cy82NsCu-27" source="vGs2cDwpTkm4cy82NsCu-29" target="vGs2cDwpTkm4cy82NsCu-30" edge="1">
          <mxGeometry width="50" height="50" relative="1" as="geometry">
            <mxPoint x="100" y="350" as="sourcePoint" />
            <mxPoint x="150" y="300" as="targetPoint" />
            <Array as="points" />
          </mxGeometry>
        </mxCell>
        <mxCell id="vGs2cDwpTkm4cy82NsCu-36" value="" style="endArrow=classic;html=1;rounded=0;exitX=0.25;exitY=1;exitDx=0;exitDy=0;entryX=0.75;entryY=0;entryDx=0;entryDy=0;" parent="vGs2cDwpTkm4cy82NsCu-27" source="vGs2cDwpTkm4cy82NsCu-30" target="vGs2cDwpTkm4cy82NsCu-31" edge="1">
          <mxGeometry width="50" height="50" relative="1" as="geometry">
            <mxPoint x="100" y="350" as="sourcePoint" />
            <mxPoint x="150" y="300" as="targetPoint" />
          </mxGeometry>
        </mxCell>
        <mxCell id="vGs2cDwpTkm4cy82NsCu-37" value="" style="endArrow=classic;html=1;rounded=0;exitX=1;exitY=0.5;exitDx=0;exitDy=0;entryX=0;entryY=0.5;entryDx=0;entryDy=0;" parent="vGs2cDwpTkm4cy82NsCu-27" source="vGs2cDwpTkm4cy82NsCu-31" target="vGs2cDwpTkm4cy82NsCu-32" edge="1">
          <mxGeometry width="50" height="50" relative="1" as="geometry">
            <mxPoint x="100" y="350" as="sourcePoint" />
            <mxPoint x="150" y="300" as="targetPoint" />
          </mxGeometry>
        </mxCell>
        <mxCell id="vGs2cDwpTkm4cy82NsCu-39" value="Конец" style="whiteSpace=wrap;html=1;" parent="vGs2cDwpTkm4cy82NsCu-27" vertex="1">
          <mxGeometry x="115" y="200" width="75" height="40" as="geometry" />
        </mxCell>
        <mxCell id="vGs2cDwpTkm4cy82NsCu-38" value="Подведение итогов" style="whiteSpace=wrap;html=1;" parent="1" vertex="1">
          <mxGeometry x="3010" y="440" width="70" height="40" as="geometry" />
        </mxCell>
        <mxCell id="vGs2cDwpTkm4cy82NsCu-40" value="" style="endArrow=classic;html=1;rounded=0;exitX=0.25;exitY=1;exitDx=0;exitDy=0;entryX=0.75;entryY=0;entryDx=0;entryDy=0;" parent="1" source="vGs2cDwpTkm4cy82NsCu-32" target="vGs2cDwpTkm4cy82NsCu-38" edge="1">
          <mxGeometry width="50" height="50" relative="1" as="geometry">
            <mxPoint x="2820" y="660" as="sourcePoint" />
            <mxPoint x="2870" y="610" as="targetPoint" />
          </mxGeometry>
        </mxCell>
        <mxCell id="vGs2cDwpTkm4cy82NsCu-41" value="" style="endArrow=classic;html=1;rounded=0;exitX=1;exitY=0.5;exitDx=0;exitDy=0;entryX=0;entryY=0.5;entryDx=0;entryDy=0;" parent="1" source="vGs2cDwpTkm4cy82NsCu-38" target="vGs2cDwpTkm4cy82NsCu-39" edge="1">
          <mxGeometry width="50" height="50" relative="1" as="geometry">
            <mxPoint x="2820" y="660" as="sourcePoint" />
            <mxPoint x="2870" y="610" as="targetPoint" />
          </mxGeometry>
        </mxCell>
        <mxCell id="vGs2cDwpTkm4cy82NsCu-62" value="План работ на январь 2022" style="rounded=0;whiteSpace=wrap;html=1;" parent="1" vertex="1">
          <mxGeometry x="1800" y="169" width="230" height="40" as="geometry" />
        </mxCell>
        <mxCell id="vGs2cDwpTkm4cy82NsCu-63" value="Файлы" style="shape=note;whiteSpace=wrap;html=1;backgroundOutline=1;darkOpacity=0.05;" parent="1" vertex="1">
          <mxGeometry x="2570" y="169" width="110" height="40" as="geometry" />
        </mxCell>
        <mxCell id="vGs2cDwpTkm4cy82NsCu-64" value="" style="verticalLabelPosition=bottom;verticalAlign=top;html=1;shape=mxgraph.basic.layered_rect;dx=10;outlineConnect=0;whiteSpace=wrap;" parent="1" vertex="1">
          <mxGeometry x="1940" y="280" width="90" height="51" as="geometry" />
        </mxCell>
        <mxCell id="vGs2cDwpTkm4cy82NsCu-65" value="Список задач" style="text;html=1;align=center;verticalAlign=middle;whiteSpace=wrap;rounded=0;" parent="1" vertex="1">
          <mxGeometry x="1950" y="280" width="60" height="40" as="geometry" />
        </mxCell>
        <mxCell id="vGs2cDwpTkm4cy82NsCu-66" value="Настройки таблиц и графиков" style="label;whiteSpace=wrap;html=1;image=img/clipart/Gear_128x128.png" parent="1" vertex="1">
          <mxGeometry x="1610" y="169" width="180" height="40" as="geometry" />
        </mxCell>
        <mxCell id="vGs2cDwpTkm4cy82NsCu-67" value="Настройки" style="label;whiteSpace=wrap;html=1;image=img/clipart/Gear_128x128.png" parent="1" vertex="1">
          <mxGeometry x="1480" y="170" width="120" height="40" as="geometry" />
        </mxCell>
        <mxCell id="vGs2cDwpTkm4cy82NsCu-68" value="Создать график" style="html=1;whiteSpace=wrap;container=1;recursiveResize=0;collapsible=0;" parent="1" vertex="1">
          <mxGeometry x="1940" y="221" width="90" height="40" as="geometry" />
        </mxCell>
        <mxCell id="vGs2cDwpTkm4cy82NsCu-69" value="" style="triangle;html=1;whiteSpace=wrap;" parent="vGs2cDwpTkm4cy82NsCu-68" vertex="1">
          <mxGeometry x="7.5" y="12.5" width="15" height="15" as="geometry" />
        </mxCell>
        <mxCell id="vGs2cDwpTkm4cy82NsCu-70" value="Списки, таблицы, заметки, тексты, задачи не вошедшие в &quot;список и перечень задач&quot;" style="rounded=1;whiteSpace=wrap;html=1;" parent="1" vertex="1">
          <mxGeometry x="200" y="20" width="150" height="70" as="geometry" />
        </mxCell>
        <mxCell id="vGs2cDwpTkm4cy82NsCu-74" value="Файлы" style="shape=note;whiteSpace=wrap;html=1;backgroundOutline=1;darkOpacity=0.05;" parent="1" vertex="1">
          <mxGeometry x="1360" y="170" width="110" height="40" as="geometry" />
        </mxCell>
        <mxCell id="vGs2cDwpTkm4cy82NsCu-76" value="Календарь" style="shape=table;startSize=30;container=1;collapsible=0;childLayout=tableLayout;strokeColor=default;fontSize=16;" parent="1" vertex="1">
          <mxGeometry x="1940" y="349.5" width="90" height="61" as="geometry" />
        </mxCell>
        <mxCell id="vGs2cDwpTkm4cy82NsCu-77" value="" style="shape=tableRow;horizontal=0;startSize=0;swimlaneHead=0;swimlaneBody=0;strokeColor=inherit;top=0;left=0;bottom=0;right=0;collapsible=0;dropTarget=0;fillColor=none;points=[[0,0.5],[1,0.5]];portConstraint=eastwest;fontSize=16;" parent="vGs2cDwpTkm4cy82NsCu-76" vertex="1">
          <mxGeometry y="30" width="90" height="11" as="geometry" />
        </mxCell>
        <mxCell id="vGs2cDwpTkm4cy82NsCu-78" value="" style="shape=partialRectangle;html=1;whiteSpace=wrap;connectable=0;strokeColor=inherit;overflow=hidden;fillColor=none;top=0;left=0;bottom=0;right=0;pointerEvents=1;fontSize=16;" parent="vGs2cDwpTkm4cy82NsCu-77" vertex="1">
          <mxGeometry width="30" height="11" as="geometry">
            <mxRectangle width="30" height="11" as="alternateBounds" />
          </mxGeometry>
        </mxCell>
        <mxCell id="vGs2cDwpTkm4cy82NsCu-79" value="" style="shape=partialRectangle;html=1;whiteSpace=wrap;connectable=0;strokeColor=inherit;overflow=hidden;fillColor=none;top=0;left=0;bottom=0;right=0;pointerEvents=1;fontSize=16;" parent="vGs2cDwpTkm4cy82NsCu-77" vertex="1">
          <mxGeometry x="30" width="30" height="11" as="geometry">
            <mxRectangle width="30" height="11" as="alternateBounds" />
          </mxGeometry>
        </mxCell>
        <mxCell id="vGs2cDwpTkm4cy82NsCu-80" value="" style="shape=partialRectangle;html=1;whiteSpace=wrap;connectable=0;strokeColor=inherit;overflow=hidden;fillColor=none;top=0;left=0;bottom=0;right=0;pointerEvents=1;fontSize=16;" parent="vGs2cDwpTkm4cy82NsCu-77" vertex="1">
          <mxGeometry x="60" width="30" height="11" as="geometry">
            <mxRectangle width="30" height="11" as="alternateBounds" />
          </mxGeometry>
        </mxCell>
        <mxCell id="vGs2cDwpTkm4cy82NsCu-81" value="" style="shape=tableRow;horizontal=0;startSize=0;swimlaneHead=0;swimlaneBody=0;strokeColor=inherit;top=0;left=0;bottom=0;right=0;collapsible=0;dropTarget=0;fillColor=none;points=[[0,0.5],[1,0.5]];portConstraint=eastwest;fontSize=16;" parent="vGs2cDwpTkm4cy82NsCu-76" vertex="1">
          <mxGeometry y="41" width="90" height="9" as="geometry" />
        </mxCell>
        <mxCell id="vGs2cDwpTkm4cy82NsCu-82" value="" style="shape=partialRectangle;html=1;whiteSpace=wrap;connectable=0;strokeColor=inherit;overflow=hidden;fillColor=none;top=0;left=0;bottom=0;right=0;pointerEvents=1;fontSize=16;" parent="vGs2cDwpTkm4cy82NsCu-81" vertex="1">
          <mxGeometry width="30" height="9" as="geometry">
            <mxRectangle width="30" height="9" as="alternateBounds" />
          </mxGeometry>
        </mxCell>
        <mxCell id="vGs2cDwpTkm4cy82NsCu-83" value="" style="shape=partialRectangle;html=1;whiteSpace=wrap;connectable=0;strokeColor=inherit;overflow=hidden;fillColor=none;top=0;left=0;bottom=0;right=0;pointerEvents=1;fontSize=16;" parent="vGs2cDwpTkm4cy82NsCu-81" vertex="1">
          <mxGeometry x="30" width="30" height="9" as="geometry">
            <mxRectangle width="30" height="9" as="alternateBounds" />
          </mxGeometry>
        </mxCell>
        <mxCell id="vGs2cDwpTkm4cy82NsCu-84" value="" style="shape=partialRectangle;html=1;whiteSpace=wrap;connectable=0;strokeColor=inherit;overflow=hidden;fillColor=none;top=0;left=0;bottom=0;right=0;pointerEvents=1;fontSize=16;" parent="vGs2cDwpTkm4cy82NsCu-81" vertex="1">
          <mxGeometry x="60" width="30" height="9" as="geometry">
            <mxRectangle width="30" height="9" as="alternateBounds" />
          </mxGeometry>
        </mxCell>
        <mxCell id="vGs2cDwpTkm4cy82NsCu-85" value="" style="shape=tableRow;horizontal=0;startSize=0;swimlaneHead=0;swimlaneBody=0;strokeColor=inherit;top=0;left=0;bottom=0;right=0;collapsible=0;dropTarget=0;fillColor=none;points=[[0,0.5],[1,0.5]];portConstraint=eastwest;fontSize=16;" parent="vGs2cDwpTkm4cy82NsCu-76" vertex="1">
          <mxGeometry y="50" width="90" height="11" as="geometry" />
        </mxCell>
        <mxCell id="vGs2cDwpTkm4cy82NsCu-86" value="" style="shape=partialRectangle;html=1;whiteSpace=wrap;connectable=0;strokeColor=inherit;overflow=hidden;fillColor=none;top=0;left=0;bottom=0;right=0;pointerEvents=1;fontSize=16;" parent="vGs2cDwpTkm4cy82NsCu-85" vertex="1">
          <mxGeometry width="30" height="11" as="geometry">
            <mxRectangle width="30" height="11" as="alternateBounds" />
          </mxGeometry>
        </mxCell>
        <mxCell id="vGs2cDwpTkm4cy82NsCu-87" value="" style="shape=partialRectangle;html=1;whiteSpace=wrap;connectable=0;strokeColor=inherit;overflow=hidden;fillColor=none;top=0;left=0;bottom=0;right=0;pointerEvents=1;fontSize=16;" parent="vGs2cDwpTkm4cy82NsCu-85" vertex="1">
          <mxGeometry x="30" width="30" height="11" as="geometry">
            <mxRectangle width="30" height="11" as="alternateBounds" />
          </mxGeometry>
        </mxCell>
        <mxCell id="vGs2cDwpTkm4cy82NsCu-88" value="" style="shape=partialRectangle;html=1;whiteSpace=wrap;connectable=0;strokeColor=inherit;overflow=hidden;fillColor=none;top=0;left=0;bottom=0;right=0;pointerEvents=1;fontSize=16;" parent="vGs2cDwpTkm4cy82NsCu-85" vertex="1">
          <mxGeometry x="60" width="30" height="11" as="geometry">
            <mxRectangle width="30" height="11" as="alternateBounds" />
          </mxGeometry>
        </mxCell>
        <mxCell id="SkQsY1CltA6RGCCleW-o-10" value="Настройки" style="label;whiteSpace=wrap;html=1;image=img/clipart/Gear_128x128.png" parent="1" vertex="1">
          <mxGeometry x="270" y="173" width="120" height="38" as="geometry" />
        </mxCell>
        <mxCell id="SkQsY1CltA6RGCCleW-o-11" value="Файл" style="shape=note;whiteSpace=wrap;html=1;backgroundOutline=1;darkOpacity=0.05;" parent="1" vertex="1">
          <mxGeometry x="50" y="172" width="100" height="38" as="geometry" />
        </mxCell>
        <mxCell id="SkQsY1CltA6RGCCleW-o-20" value="Файл" style="shape=note;whiteSpace=wrap;html=1;backgroundOutline=1;darkOpacity=0.05;" parent="1" vertex="1">
          <mxGeometry x="1250" y="170" width="100" height="39" as="geometry" />
        </mxCell>
        <mxCell id="SkQsY1CltA6RGCCleW-o-42" value="Файл" style="shape=note;whiteSpace=wrap;html=1;backgroundOutline=1;darkOpacity=0.05;" parent="1" vertex="1">
          <mxGeometry x="2450" y="169" width="110" height="39" as="geometry" />
        </mxCell>
        <mxCell id="SkQsY1CltA6RGCCleW-o-43" value="Файлы" style="shape=note;whiteSpace=wrap;html=1;backgroundOutline=1;darkOpacity=0.05;" parent="1" vertex="1">
          <mxGeometry x="160" y="173" width="100" height="37" as="geometry" />
        </mxCell>
        <mxCell id="SkQsY1CltA6RGCCleW-o-48" value="" style="endArrow=none;html=1;rounded=0;fillColor=#f8cecc;strokeColor=#b85450;strokeWidth=5;" parent="1" edge="1">
          <mxGeometry width="50" height="50" relative="1" as="geometry">
            <mxPoint x="1750" y="212" as="sourcePoint" />
            <mxPoint x="1750" y="212" as="targetPoint" />
            <Array as="points">
              <mxPoint x="1750" y="292" />
              <mxPoint x="1630" y="292" />
              <mxPoint x="1630" y="212" />
            </Array>
          </mxGeometry>
        </mxCell>
        <mxCell id="SkQsY1CltA6RGCCleW-o-106" value="Стандартные функции, такие как: создать, открыть, сохранить как и т.д." style="rounded=1;whiteSpace=wrap;html=1;" parent="1" vertex="1">
          <mxGeometry x="40" y="20" width="120" height="60" as="geometry" />
        </mxCell>
        <mxCell id="SkQsY1CltA6RGCCleW-o-107" value="" style="endArrow=classic;html=1;rounded=0;" parent="1" edge="1">
          <mxGeometry width="50" height="50" relative="1" as="geometry">
            <mxPoint x="100" y="90" as="sourcePoint" />
            <mxPoint x="100" y="150" as="targetPoint" />
          </mxGeometry>
        </mxCell>
        <mxCell id="SkQsY1CltA6RGCCleW-o-108" value="" style="endArrow=classic;html=1;rounded=0;" parent="1" edge="1">
          <mxGeometry width="50" height="50" relative="1" as="geometry">
            <mxPoint x="220" y="100" as="sourcePoint" />
            <mxPoint x="220" y="150" as="targetPoint" />
          </mxGeometry>
        </mxCell>
        <mxCell id="SkQsY1CltA6RGCCleW-o-109" value="" style="endArrow=classic;html=1;rounded=0;fillColor=#f8cecc;strokeColor=#000000;strokeWidth=1;" parent="1" edge="1">
          <mxGeometry width="50" height="50" relative="1" as="geometry">
            <mxPoint x="480" y="120" as="sourcePoint" />
            <mxPoint x="320" y="150" as="targetPoint" />
            <Array as="points">
              <mxPoint x="320" y="120" />
            </Array>
          </mxGeometry>
        </mxCell>
        <mxCell id="SkQsY1CltA6RGCCleW-o-110" value="" style="endArrow=none;html=1;rounded=0;" parent="1" edge="1">
          <mxGeometry width="50" height="50" relative="1" as="geometry">
            <mxPoint x="480" y="120" as="sourcePoint" />
            <mxPoint x="480" y="100" as="targetPoint" />
          </mxGeometry>
        </mxCell>
        <mxCell id="SkQsY1CltA6RGCCleW-o-113" value="" style="childLayout=tableLayout;recursiveResize=0;shadow=0;fillColor=none;" parent="1" vertex="1">
          <mxGeometry x="50" y="240" width="770" height="295" as="geometry" />
        </mxCell>
        <mxCell id="SkQsY1CltA6RGCCleW-o-114" value="" style="shape=tableRow;horizontal=0;startSize=0;swimlaneHead=0;swimlaneBody=0;top=0;left=0;bottom=0;right=0;dropTarget=0;collapsible=0;recursiveResize=0;expand=0;fontStyle=0;fillColor=none;strokeColor=inherit;" parent="SkQsY1CltA6RGCCleW-o-113" vertex="1">
          <mxGeometry width="770" height="37" as="geometry" />
        </mxCell>
        <mxCell id="SkQsY1CltA6RGCCleW-o-115" value="Функции и фильтры" style="connectable=0;recursiveResize=0;strokeColor=inherit;fillColor=none;align=center;whiteSpace=wrap;html=1;rowspan=1;colspan=2;" parent="SkQsY1CltA6RGCCleW-o-114" vertex="1">
          <mxGeometry width="770" height="37" as="geometry">
            <mxRectangle width="640" height="37" as="alternateBounds" />
          </mxGeometry>
        </mxCell>
        <mxCell id="SkQsY1CltA6RGCCleW-o-116" value="" style="connectable=0;recursiveResize=0;strokeColor=inherit;fillColor=none;align=center;whiteSpace=wrap;html=1;" parent="SkQsY1CltA6RGCCleW-o-114" vertex="1" visible="0">
          <mxGeometry x="640" width="130" height="37" as="geometry">
            <mxRectangle width="130" height="37" as="alternateBounds" />
          </mxGeometry>
        </mxCell>
        <mxCell id="SkQsY1CltA6RGCCleW-o-118" style="shape=tableRow;horizontal=0;startSize=0;swimlaneHead=0;swimlaneBody=0;top=0;left=0;bottom=0;right=0;dropTarget=0;collapsible=0;recursiveResize=0;expand=0;fontStyle=0;fillColor=none;strokeColor=inherit;" parent="SkQsY1CltA6RGCCleW-o-113" vertex="1">
          <mxGeometry y="37" width="770" height="36" as="geometry" />
        </mxCell>
        <mxCell id="SkQsY1CltA6RGCCleW-o-119" value="Сортировка по времени создания" style="connectable=0;recursiveResize=0;strokeColor=inherit;fillColor=none;align=center;whiteSpace=wrap;html=1;" parent="SkQsY1CltA6RGCCleW-o-118" vertex="1">
          <mxGeometry width="640" height="36" as="geometry">
            <mxRectangle width="640" height="36" as="alternateBounds" />
          </mxGeometry>
        </mxCell>
        <mxCell id="SkQsY1CltA6RGCCleW-o-120" value="Вкл./Выкл." style="connectable=0;recursiveResize=0;strokeColor=inherit;fillColor=none;align=center;whiteSpace=wrap;html=1;" parent="SkQsY1CltA6RGCCleW-o-118" vertex="1">
          <mxGeometry x="640" width="130" height="36" as="geometry">
            <mxRectangle width="130" height="36" as="alternateBounds" />
          </mxGeometry>
        </mxCell>
        <mxCell id="SkQsY1CltA6RGCCleW-o-122" style="shape=tableRow;horizontal=0;startSize=0;swimlaneHead=0;swimlaneBody=0;top=0;left=0;bottom=0;right=0;dropTarget=0;collapsible=0;recursiveResize=0;expand=0;fontStyle=0;fillColor=none;strokeColor=inherit;" parent="SkQsY1CltA6RGCCleW-o-113" vertex="1">
          <mxGeometry y="73" width="770" height="37" as="geometry" />
        </mxCell>
        <mxCell id="SkQsY1CltA6RGCCleW-o-123" value="Отображение на графики времени напоминания о статусе задачи" style="connectable=0;recursiveResize=0;strokeColor=inherit;fillColor=none;align=center;whiteSpace=wrap;html=1;" parent="SkQsY1CltA6RGCCleW-o-122" vertex="1">
          <mxGeometry width="640" height="37" as="geometry">
            <mxRectangle width="640" height="37" as="alternateBounds" />
          </mxGeometry>
        </mxCell>
        <mxCell id="SkQsY1CltA6RGCCleW-o-124" value="Вкл./Выкл." style="connectable=0;recursiveResize=0;strokeColor=inherit;fillColor=none;align=center;whiteSpace=wrap;html=1;" parent="SkQsY1CltA6RGCCleW-o-122" vertex="1">
          <mxGeometry x="640" width="130" height="37" as="geometry">
            <mxRectangle width="130" height="37" as="alternateBounds" />
          </mxGeometry>
        </mxCell>
        <mxCell id="SkQsY1CltA6RGCCleW-o-126" style="shape=tableRow;horizontal=0;startSize=0;swimlaneHead=0;swimlaneBody=0;top=0;left=0;bottom=0;right=0;dropTarget=0;collapsible=0;recursiveResize=0;expand=0;fontStyle=0;fillColor=none;strokeColor=inherit;" parent="SkQsY1CltA6RGCCleW-o-113" vertex="1">
          <mxGeometry y="110" width="770" height="37" as="geometry" />
        </mxCell>
        <mxCell id="SkQsY1CltA6RGCCleW-o-127" value="Отображение этапов работы на графике" style="connectable=0;recursiveResize=0;strokeColor=inherit;fillColor=none;align=center;whiteSpace=wrap;html=1;" parent="SkQsY1CltA6RGCCleW-o-126" vertex="1">
          <mxGeometry width="640" height="37" as="geometry">
            <mxRectangle width="640" height="37" as="alternateBounds" />
          </mxGeometry>
        </mxCell>
        <mxCell id="SkQsY1CltA6RGCCleW-o-128" value="Вкл./Выкл." style="connectable=0;recursiveResize=0;strokeColor=inherit;fillColor=none;align=center;whiteSpace=wrap;html=1;" parent="SkQsY1CltA6RGCCleW-o-126" vertex="1">
          <mxGeometry x="640" width="130" height="37" as="geometry">
            <mxRectangle width="130" height="37" as="alternateBounds" />
          </mxGeometry>
        </mxCell>
        <mxCell id="SkQsY1CltA6RGCCleW-o-129" style="shape=tableRow;horizontal=0;startSize=0;swimlaneHead=0;swimlaneBody=0;top=0;left=0;bottom=0;right=0;dropTarget=0;collapsible=0;recursiveResize=0;expand=0;fontStyle=0;fillColor=none;strokeColor=inherit;" parent="SkQsY1CltA6RGCCleW-o-113" vertex="1">
          <mxGeometry y="147" width="770" height="37" as="geometry" />
        </mxCell>
        <mxCell id="SkQsY1CltA6RGCCleW-o-130" value="&lt;font color=&quot;#ff0000&quot;&gt;&lt;u&gt;Напоминание о статусе актуальности задачи&lt;/u&gt;&lt;/font&gt;" style="connectable=0;recursiveResize=0;strokeColor=inherit;fillColor=none;align=center;whiteSpace=wrap;html=1;" parent="SkQsY1CltA6RGCCleW-o-129" vertex="1">
          <mxGeometry width="640" height="37" as="geometry">
            <mxRectangle width="640" height="37" as="alternateBounds" />
          </mxGeometry>
        </mxCell>
        <mxCell id="SkQsY1CltA6RGCCleW-o-131" value="&lt;font color=&quot;#ff0000&quot;&gt;&lt;u&gt;Вкл./Выкл.&lt;/u&gt;&lt;/font&gt;" style="connectable=0;recursiveResize=0;strokeColor=inherit;fillColor=none;align=center;whiteSpace=wrap;html=1;" parent="SkQsY1CltA6RGCCleW-o-129" vertex="1">
          <mxGeometry x="640" width="130" height="37" as="geometry">
            <mxRectangle width="130" height="37" as="alternateBounds" />
          </mxGeometry>
        </mxCell>
        <mxCell id="SkQsY1CltA6RGCCleW-o-132" style="shape=tableRow;horizontal=0;startSize=0;swimlaneHead=0;swimlaneBody=0;top=0;left=0;bottom=0;right=0;dropTarget=0;collapsible=0;recursiveResize=0;expand=0;fontStyle=0;fillColor=none;strokeColor=inherit;" parent="SkQsY1CltA6RGCCleW-o-113" vertex="1">
          <mxGeometry y="184" width="770" height="37" as="geometry" />
        </mxCell>
        <mxCell id="SkQsY1CltA6RGCCleW-o-133" value="&lt;font color=&quot;#ff0000&quot;&gt;&lt;u&gt;Оповещение всплывающим окном&lt;/u&gt;&lt;/font&gt;" style="connectable=0;recursiveResize=0;strokeColor=inherit;fillColor=none;align=center;whiteSpace=wrap;html=1;" parent="SkQsY1CltA6RGCCleW-o-132" vertex="1">
          <mxGeometry width="640" height="37" as="geometry">
            <mxRectangle width="640" height="37" as="alternateBounds" />
          </mxGeometry>
        </mxCell>
        <mxCell id="SkQsY1CltA6RGCCleW-o-134" value="&lt;u&gt;&lt;font color=&quot;#ff0000&quot;&gt;Вкл./Выкл.&lt;/font&gt;&lt;/u&gt;" style="connectable=0;recursiveResize=0;strokeColor=inherit;fillColor=none;align=center;whiteSpace=wrap;html=1;" parent="SkQsY1CltA6RGCCleW-o-132" vertex="1">
          <mxGeometry x="640" width="130" height="37" as="geometry">
            <mxRectangle width="130" height="37" as="alternateBounds" />
          </mxGeometry>
        </mxCell>
        <mxCell id="SkQsY1CltA6RGCCleW-o-135" style="shape=tableRow;horizontal=0;startSize=0;swimlaneHead=0;swimlaneBody=0;top=0;left=0;bottom=0;right=0;dropTarget=0;collapsible=0;recursiveResize=0;expand=0;fontStyle=0;fillColor=none;strokeColor=inherit;" parent="SkQsY1CltA6RGCCleW-o-113" vertex="1">
          <mxGeometry y="221" width="770" height="37" as="geometry" />
        </mxCell>
        <mxCell id="SkQsY1CltA6RGCCleW-o-136" value="Сортировка планов и задач по рабочим командам" style="connectable=0;recursiveResize=0;strokeColor=inherit;fillColor=none;align=center;whiteSpace=wrap;html=1;" parent="SkQsY1CltA6RGCCleW-o-135" vertex="1">
          <mxGeometry width="640" height="37" as="geometry">
            <mxRectangle width="640" height="37" as="alternateBounds" />
          </mxGeometry>
        </mxCell>
        <mxCell id="SkQsY1CltA6RGCCleW-o-137" value="Вкл./Выкл." style="connectable=0;recursiveResize=0;strokeColor=inherit;fillColor=none;align=center;whiteSpace=wrap;html=1;" parent="SkQsY1CltA6RGCCleW-o-135" vertex="1">
          <mxGeometry x="640" width="130" height="37" as="geometry">
            <mxRectangle width="130" height="37" as="alternateBounds" />
          </mxGeometry>
        </mxCell>
        <mxCell id="SkQsY1CltA6RGCCleW-o-138" style="shape=tableRow;horizontal=0;startSize=0;swimlaneHead=0;swimlaneBody=0;top=0;left=0;bottom=0;right=0;dropTarget=0;collapsible=0;recursiveResize=0;expand=0;fontStyle=0;fillColor=none;strokeColor=inherit;" parent="SkQsY1CltA6RGCCleW-o-113" vertex="1">
          <mxGeometry y="258" width="770" height="37" as="geometry" />
        </mxCell>
        <mxCell id="SkQsY1CltA6RGCCleW-o-139" value="Сортировка по времени выполнения" style="connectable=0;recursiveResize=0;strokeColor=inherit;fillColor=none;align=center;whiteSpace=wrap;html=1;" parent="SkQsY1CltA6RGCCleW-o-138" vertex="1">
          <mxGeometry width="640" height="37" as="geometry">
            <mxRectangle width="640" height="37" as="alternateBounds" />
          </mxGeometry>
        </mxCell>
        <mxCell id="SkQsY1CltA6RGCCleW-o-140" value="Вкл./Выкл." style="connectable=0;recursiveResize=0;strokeColor=inherit;fillColor=none;align=center;whiteSpace=wrap;html=1;" parent="SkQsY1CltA6RGCCleW-o-138" vertex="1">
          <mxGeometry x="640" width="130" height="37" as="geometry">
            <mxRectangle width="130" height="37" as="alternateBounds" />
          </mxGeometry>
        </mxCell>
        <mxCell id="SkQsY1CltA6RGCCleW-o-141" value="Настройки таблиц и графиков" style="label;whiteSpace=wrap;html=1;image=img/clipart/Gear_128x128.png;strokeColor=#FF0000;strokeWidth=2;" parent="1" vertex="1">
          <mxGeometry x="400" y="172" width="180" height="40" as="geometry" />
        </mxCell>
        <mxCell id="SkQsY1CltA6RGCCleW-o-142" value="" style="endArrow=classic;html=1;rounded=0;strokeColor=#FF0000;strokeWidth=2;" parent="1" edge="1">
          <mxGeometry width="50" height="50" relative="1" as="geometry">
            <mxPoint x="520" y="120" as="sourcePoint" />
            <mxPoint x="500" y="150" as="targetPoint" />
            <Array as="points">
              <mxPoint x="500" y="120" />
            </Array>
          </mxGeometry>
        </mxCell>
        <mxCell id="SkQsY1CltA6RGCCleW-o-143" value="" style="endArrow=classic;startArrow=classic;html=1;rounded=0;entryX=0.5;entryY=1;entryDx=0;entryDy=0;exitX=0.57;exitY=-0.023;exitDx=0;exitDy=0;exitPerimeter=0;" parent="1" source="SkQsY1CltA6RGCCleW-o-114" target="SkQsY1CltA6RGCCleW-o-141" edge="1">
          <mxGeometry width="50" height="50" relative="1" as="geometry">
            <mxPoint x="340" y="280" as="sourcePoint" />
            <mxPoint x="390" y="230" as="targetPoint" />
          </mxGeometry>
        </mxCell>
        <mxCell id="SkQsY1CltA6RGCCleW-o-144" value="Настройки таблиц и графиков" style="label;whiteSpace=wrap;html=1;image=img/clipart/Gear_128x128.png" parent="1" vertex="1">
          <mxGeometry x="2830" y="169" width="180" height="40" as="geometry" />
        </mxCell>
        <mxCell id="SkQsY1CltA6RGCCleW-o-146" value="Настройки таблиц и графиков." style="rounded=1;whiteSpace=wrap;html=1;" parent="1" vertex="1">
          <mxGeometry x="530" y="80" width="130" height="50" as="geometry" />
        </mxCell>
        <mxCell id="SkQsY1CltA6RGCCleW-o-147" value="" style="endArrow=none;html=1;rounded=0;fillColor=#f8cecc;strokeColor=#b85450;strokeWidth=5;" parent="1" edge="1">
          <mxGeometry width="50" height="50" relative="1" as="geometry">
            <mxPoint x="1940" y="210" as="sourcePoint" />
            <mxPoint x="1940" y="210" as="targetPoint" />
            <Array as="points">
              <mxPoint x="1940" y="290" />
              <mxPoint x="1820" y="290" />
              <mxPoint x="1820" y="210" />
            </Array>
          </mxGeometry>
        </mxCell>
        <mxCell id="SkQsY1CltA6RGCCleW-o-148" value="" style="endArrow=none;html=1;rounded=0;entryX=1;entryY=0.5;entryDx=0;entryDy=0;exitX=-0.013;exitY=0.648;exitDx=0;exitDy=0;exitPerimeter=0;" parent="1" source="ijdiBSMjXIEksHt79I9u-50" target="SkQsY1CltA6RGCCleW-o-146" edge="1">
          <mxGeometry width="50" height="50" relative="1" as="geometry">
            <mxPoint x="870" y="273" as="sourcePoint" />
            <mxPoint x="920" y="223" as="targetPoint" />
            <Array as="points">
              <mxPoint x="680" y="105" />
            </Array>
          </mxGeometry>
        </mxCell>
        <mxCell id="SkQsY1CltA6RGCCleW-o-150" value="" style="rounded=0;whiteSpace=wrap;html=1;" parent="1" vertex="1">
          <mxGeometry x="3600" y="160" width="800" height="400" as="geometry" />
        </mxCell>
        <mxCell id="SkQsY1CltA6RGCCleW-o-151" value="" style="childLayout=tableLayout;recursiveResize=0;shadow=0;fillColor=none;" parent="1" vertex="1">
          <mxGeometry x="3640" y="234" width="720" height="296" as="geometry" />
        </mxCell>
        <mxCell id="SkQsY1CltA6RGCCleW-o-152" value="" style="shape=tableRow;horizontal=0;startSize=0;swimlaneHead=0;swimlaneBody=0;top=0;left=0;bottom=0;right=0;dropTarget=0;collapsible=0;recursiveResize=0;expand=0;fontStyle=0;fillColor=none;strokeColor=inherit;" parent="SkQsY1CltA6RGCCleW-o-151" vertex="1">
          <mxGeometry width="720" height="43" as="geometry" />
        </mxCell>
        <mxCell id="SkQsY1CltA6RGCCleW-o-153" value="Документы" style="connectable=0;recursiveResize=0;strokeColor=#6c8ebf;fillColor=#dae8fc;align=center;whiteSpace=wrap;html=1;rowspan=1;colspan=3;" parent="SkQsY1CltA6RGCCleW-o-152" vertex="1">
          <mxGeometry width="720" height="43" as="geometry">
            <mxRectangle width="240" height="43" as="alternateBounds" />
          </mxGeometry>
        </mxCell>
        <mxCell id="SkQsY1CltA6RGCCleW-o-154" value="" style="connectable=0;recursiveResize=0;strokeColor=inherit;fillColor=none;align=center;whiteSpace=wrap;html=1;" parent="SkQsY1CltA6RGCCleW-o-152" vertex="1" visible="0">
          <mxGeometry x="240" width="240" height="43" as="geometry">
            <mxRectangle width="240" height="43" as="alternateBounds" />
          </mxGeometry>
        </mxCell>
        <mxCell id="SkQsY1CltA6RGCCleW-o-155" value="" style="connectable=0;recursiveResize=0;strokeColor=inherit;fillColor=none;align=center;whiteSpace=wrap;html=1;" parent="SkQsY1CltA6RGCCleW-o-152" vertex="1" visible="0">
          <mxGeometry x="480" width="240" height="43" as="geometry">
            <mxRectangle width="240" height="43" as="alternateBounds" />
          </mxGeometry>
        </mxCell>
        <mxCell id="SkQsY1CltA6RGCCleW-o-156" style="shape=tableRow;horizontal=0;startSize=0;swimlaneHead=0;swimlaneBody=0;top=0;left=0;bottom=0;right=0;dropTarget=0;collapsible=0;recursiveResize=0;expand=0;fontStyle=0;fillColor=none;strokeColor=inherit;" parent="SkQsY1CltA6RGCCleW-o-151" vertex="1">
          <mxGeometry y="43" width="720" height="41" as="geometry" />
        </mxCell>
        <mxCell id="SkQsY1CltA6RGCCleW-o-157" value="&lt;span style=&quot;text-align: left;&quot;&gt;Протокол принятия 2-го этапа работ&lt;/span&gt;" style="connectable=0;recursiveResize=0;strokeColor=inherit;fillColor=none;align=center;whiteSpace=wrap;html=1;rowspan=1;colspan=3;" parent="SkQsY1CltA6RGCCleW-o-156" vertex="1">
          <mxGeometry width="720" height="41" as="geometry">
            <mxRectangle width="240" height="41" as="alternateBounds" />
          </mxGeometry>
        </mxCell>
        <mxCell id="SkQsY1CltA6RGCCleW-o-158" value="" style="connectable=0;recursiveResize=0;strokeColor=inherit;fillColor=none;align=center;whiteSpace=wrap;html=1;" parent="SkQsY1CltA6RGCCleW-o-156" vertex="1" visible="0">
          <mxGeometry x="240" width="240" height="41" as="geometry">
            <mxRectangle width="240" height="41" as="alternateBounds" />
          </mxGeometry>
        </mxCell>
        <mxCell id="SkQsY1CltA6RGCCleW-o-159" value="" style="connectable=0;recursiveResize=0;strokeColor=inherit;fillColor=none;align=center;whiteSpace=wrap;html=1;" parent="SkQsY1CltA6RGCCleW-o-156" vertex="1" visible="0">
          <mxGeometry x="480" width="240" height="41" as="geometry">
            <mxRectangle width="240" height="41" as="alternateBounds" />
          </mxGeometry>
        </mxCell>
        <mxCell id="SkQsY1CltA6RGCCleW-o-160" style="shape=tableRow;horizontal=0;startSize=0;swimlaneHead=0;swimlaneBody=0;top=0;left=0;bottom=0;right=0;dropTarget=0;collapsible=0;recursiveResize=0;expand=0;fontStyle=0;fillColor=none;strokeColor=inherit;" parent="SkQsY1CltA6RGCCleW-o-151" vertex="1">
          <mxGeometry y="84" width="720" height="212" as="geometry" />
        </mxCell>
        <mxCell id="SkQsY1CltA6RGCCleW-o-161" value="" style="connectable=0;recursiveResize=0;strokeColor=inherit;fillColor=none;align=center;whiteSpace=wrap;html=1;rowspan=1;colspan=3;" parent="SkQsY1CltA6RGCCleW-o-160" vertex="1">
          <mxGeometry width="720" height="212" as="geometry">
            <mxRectangle width="240" height="212" as="alternateBounds" />
          </mxGeometry>
        </mxCell>
        <mxCell id="SkQsY1CltA6RGCCleW-o-162" value="" style="connectable=0;recursiveResize=0;strokeColor=inherit;fillColor=none;align=center;whiteSpace=wrap;html=1;" parent="SkQsY1CltA6RGCCleW-o-160" vertex="1" visible="0">
          <mxGeometry x="240" width="240" height="212" as="geometry">
            <mxRectangle width="240" height="212" as="alternateBounds" />
          </mxGeometry>
        </mxCell>
        <mxCell id="SkQsY1CltA6RGCCleW-o-163" value="" style="connectable=0;recursiveResize=0;strokeColor=inherit;fillColor=none;align=center;whiteSpace=wrap;html=1;" parent="SkQsY1CltA6RGCCleW-o-160" vertex="1" visible="0">
          <mxGeometry x="480" width="240" height="212" as="geometry">
            <mxRectangle width="240" height="212" as="alternateBounds" />
          </mxGeometry>
        </mxCell>
        <mxCell id="SkQsY1CltA6RGCCleW-o-185" value="10:05 18.01.22" style="text;html=1;align=center;verticalAlign=middle;whiteSpace=wrap;rounded=0;strokeColor=default;" parent="1" vertex="1">
          <mxGeometry x="4320" y="160" width="80" height="40" as="geometry" />
        </mxCell>
        <mxCell id="SkQsY1CltA6RGCCleW-o-187" value="" style="endArrow=classic;html=1;rounded=0;" parent="1" edge="1">
          <mxGeometry width="50" height="50" relative="1" as="geometry">
            <mxPoint x="850" y="360" as="sourcePoint" />
            <mxPoint x="1160" y="360" as="targetPoint" />
          </mxGeometry>
        </mxCell>
        <mxCell id="SkQsY1CltA6RGCCleW-o-188" value="" style="endArrow=classic;html=1;rounded=0;" parent="1" edge="1">
          <mxGeometry width="50" height="50" relative="1" as="geometry">
            <mxPoint x="2050" y="359.29" as="sourcePoint" />
            <mxPoint x="2330" y="359" as="targetPoint" />
          </mxGeometry>
        </mxCell>
        <mxCell id="SkQsY1CltA6RGCCleW-o-189" value="" style="endArrow=classic;html=1;rounded=0;" parent="1" edge="1">
          <mxGeometry width="50" height="50" relative="1" as="geometry">
            <mxPoint x="3250" y="359.28999999999996" as="sourcePoint" />
            <mxPoint x="3500" y="360" as="targetPoint" />
          </mxGeometry>
        </mxCell>
        <mxCell id="SkQsY1CltA6RGCCleW-o-190" value="" style="endArrow=classic;html=1;rounded=0;" parent="1" edge="1">
          <mxGeometry width="50" height="50" relative="1" as="geometry">
            <mxPoint x="1180" y="360" as="sourcePoint" />
            <mxPoint x="1230" y="360" as="targetPoint" />
          </mxGeometry>
        </mxCell>
        <mxCell id="SkQsY1CltA6RGCCleW-o-191" value="" style="endArrow=classic;html=1;rounded=0;" parent="1" edge="1">
          <mxGeometry width="50" height="50" relative="1" as="geometry">
            <mxPoint x="2360" y="359.41" as="sourcePoint" />
            <mxPoint x="2420" y="359.41" as="targetPoint" />
          </mxGeometry>
        </mxCell>
        <mxCell id="SkQsY1CltA6RGCCleW-o-192" value="" style="endArrow=classic;html=1;rounded=0;" parent="1" edge="1">
          <mxGeometry width="50" height="50" relative="1" as="geometry">
            <mxPoint x="3530" y="359.40999999999997" as="sourcePoint" />
            <mxPoint x="3590" y="359.40999999999997" as="targetPoint" />
          </mxGeometry>
        </mxCell>
        <mxCell id="W2YPwU0srGJ9Ea3343hL-23" value="" style="endArrow=classic;html=1;rounded=0;entryX=0.25;entryY=0;entryDx=0;entryDy=0;strokeColor=#FF0000;strokeWidth=2;" edge="1" parent="1" target="SkQsY1CltA6RGCCleW-o-160">
          <mxGeometry width="50" height="50" relative="1" as="geometry">
            <mxPoint x="3820" y="120" as="sourcePoint" />
            <mxPoint x="3820" y="150" as="targetPoint" />
          </mxGeometry>
        </mxCell>
        <mxCell id="W2YPwU0srGJ9Ea3343hL-25" value="В ходе работы в назначенное для напоминания время появляется уведомление о текущем статусе работы, напоминающее так же о скором дедлайне.&amp;nbsp;" style="text;html=1;align=center;verticalAlign=middle;whiteSpace=wrap;rounded=0;strokeColor=default;" vertex="1" parent="1">
          <mxGeometry x="3800" y="40" width="240" height="80" as="geometry" />
        </mxCell>
        <mxCell id="W2YPwU0srGJ9Ea3343hL-33" value="" style="rounded=0;whiteSpace=wrap;html=1;strokeColor=#FF0000;strokeWidth=2;perimeterSpacing=0;glass=0;" vertex="1" parent="1">
          <mxGeometry x="3670" y="331" width="670" height="140" as="geometry" />
        </mxCell>
        <mxCell id="W2YPwU0srGJ9Ea3343hL-19" value="18.01.22 - Составить протокол принятия 2-го этапа работ. Задача начата 13.01.22.&amp;nbsp;&lt;div&gt;Срок выполнения 3-ри рабочих дня. Текущий статус: В работе.&lt;/div&gt;" style="text;html=1;align=center;verticalAlign=middle;whiteSpace=wrap;rounded=0;strokeColor=#000000;strokeWidth=1;textShadow=0;" vertex="1" parent="1">
          <mxGeometry x="3680" y="341" width="650" height="120" as="geometry" />
        </mxCell>
        <mxCell id="W2YPwU0srGJ9Ea3343hL-26" value="Закрыть" style="rounded=1;whiteSpace=wrap;html=1;strokeColor=#1100FF;strokeWidth=2;" vertex="1" parent="1">
          <mxGeometry x="3965" y="431" width="80" height="20" as="geometry" />
        </mxCell>
      </root>
    </mxGraphModel>
  </diagram>
</mxfile>
